<?xml version="1.0" standalone="no"?><!DOCTYPE svg PUBLIC "-//W3C//DTD SVG 1.1//EN" "http://www.w3.org/Graphics/SVG/1.1/DTD/svg11.dtd"><svg t="1591276552252" class="icon" viewBox="0 0 1024 1024" version="1.1" xmlns="http://www.w3.org/2000/svg" p-id="11286" xmlns:xlink="http://www.w3.org/1999/xlink" width="128" height="128"><defs><style type="text/css"></style></defs><path d="M817.28042024 25.28707029c-6.07117451-17.08430596-24.84109623-26.00477881-41.92376299-19.93688748l-228.61358853 80.86527861c-0.22814161 0.08042376-0.43822789 0.18874934-0.66308623 0.27409712a31.49657401 31.49657401 0 0 0-4.67935037 2.21247473 32.64384369 32.64384369 0 0 0-5.05849143 3.5829602c-0.47269453 0.40704284-0.93390014 0.8239338-1.38033362 1.25395439a35.41436062 35.41436062 0 0 0-2.1336917 2.26335425c-0.31513017 0.36600977-0.61548829 0.74186759-0.91420559 1.12265103-0.33318396 0.426739-0.65980301 0.85675962-0.97165004 1.29990994-0.31677101 0.44807596-0.61876994 0.90763917-0.91256315 1.37212799-0.25440099 0.40211879-0.50223871 0.80423764-0.73858599 1.21620451-0.3019989 0.52521647-0.58594411 1.06192181-0.86004281 1.60519363a30.2262067 30.2262067 0 0 0-1.288421 2.90510355c-0.15592348 0.40375965-0.30528213 0.80916167-0.44643358 1.2178453a32.59624571 32.59624571 0 0 0-0.90271671 3.15950451 32.38451859 32.38451859 0 0 0-0.59415137 3.32691851c-0.05580359 0.44971677-0.10832558 0.90107431-0.14607537 1.35571505-0.05744599 0.67621591-0.08698862 1.35571509-0.10340154 2.03685503-0.00492403 0.24291209-0.03610903 0.47925934-0.03610908 0.72381388v92.47256311H188.88519896c-15.41674386 0-27.91525452 12.49851065-27.91525458 27.91525297l32.82602815 749.05385282c0 15.41674386 12.49851065 27.91525452 27.91525453 27.91525292h494.79000318c15.41674386 0 27.91525452-12.49851065 27.91525454-27.91525292l32.82602808-749.05385282c0-15.41674386-12.49851065-27.91525452-27.91525452-27.91525297h-158.76472617v-69.30066977l206.78264138-73.10684755c17.08102433-6.06953205 26.00806199-24.8394554 19.93524669-41.92212054zM253.99234415 510.07498428l-8.20650702-204.83769901a9.24052709 9.24052709 0 0 1 9.24216788-9.24216784h269.88247252V519.31550971H263.23451205a9.24052709 9.24052709 0 0 1-9.2421679-9.24052543z m429.19375053-214.07822605a9.24052709 9.24052709 0 0 1 9.24216787 9.24216947l-8.20650699 204.83769737a9.24052709 9.24052709 0 0 1-9.24216786 9.24216789h-84.41541312V295.99675823h92.6219201z" p-id="11287"></path></svg>