<svg class="icon" viewBox="0 0 1024 1024" xmlns="http://www.w3.org/2000/svg" width="128" height="128"><defs><style/></defs><path d="M612.415 953.795h-68.801V770.668c0-17.471-14.146-31.617-31.605-31.617-17.47 0-31.616 14.146-31.616 31.617v183.127H411.62c-17.47 0-31.617 14.146-31.617 31.604 0 17.472 14.146 31.618 31.617 31.618h200.797c17.443 0 31.59-14.146 31.59-31.618-.002-17.458-14.148-31.604-31.591-31.604zM866.062 221.68c-10.539-21.839-32.675-35.718-56.937-35.718H397.783L320.88 24.985c-7.552-15.766-26.418-22.43-42.172-14.906-15.753 7.524-22.445 26.404-14.92 42.157l63.897 133.727H214.867c-24.249 0-46.384 13.88-56.924 35.718-10.582 21.853-7.679 47.821 7.397 66.83l297.144 374.425a63.259 63.259 0 0 0 49.525 23.925c19.304 0 37.523-8.82 49.541-23.925L858.666 288.51c15.076-19.008 17.964-44.976 7.396-66.83zM530.327 463.45l-42.975-90.006h114.397l-71.422 90.006zM512.01 623.61L214.867 249.2h143.027l39.212 82.1h-62.15L512.01 554.359l177-223.06H467.204l-39.212-82.1h381.134L512.009 623.611z"/></svg>