<?xml version="1.0" standalone="no"?><!DOCTYPE svg PUBLIC "-//W3C//DTD SVG 1.1//EN" "http://www.w3.org/Graphics/SVG/1.1/DTD/svg11.dtd"><svg t="1591276636740" class="icon" viewBox="0 0 1024 1024" version="1.1" xmlns="http://www.w3.org/2000/svg" p-id="12015" xmlns:xlink="http://www.w3.org/1999/xlink" width="128" height="128"><defs><style type="text/css"></style></defs><path d="M736 896c0 19.2-12.8 32-32 32L320 928c-19.2 0-32-12.8-32-32l-64-512c0-19.2 12.8-32 32-32l512 0c19.2 0 32 12.8 32 32L736 896zM768 320 256 320C217.6 320 192 345.6 192 384l64 512c0 38.4 25.6 64 64 64l384 0c38.4 0 64-25.6 64-64l64-512C832 345.6 806.4 320 768 320zM851.2 256 179.2 256C166.4 256 160 262.4 160 275.2c0 6.4 6.4 12.8 19.2 12.8l672 0c6.4 0 12.8-6.4 12.8-12.8C864 262.4 857.6 256 851.2 256zM204.8 224l608 0c6.4 0 12.8-6.4 12.8-19.2C832 198.4 825.6 192 819.2 192L704 192 704 76.8C704 70.4 697.6 64 691.2 64c-6.4 0-19.2 6.4-19.2 19.2L672 192 211.2 192C198.4 192 192 198.4 192 204.8 192 217.6 198.4 224 204.8 224z" p-id="12016"></path></svg>