<?xml version="1.0" standalone="no"?><!DOCTYPE svg PUBLIC "-//W3C//DTD SVG 1.1//EN" "http://www.w3.org/Graphics/SVG/1.1/DTD/svg11.dtd"><svg t="1591275763355" class="icon" viewBox="0 0 1056 1024" version="1.1" xmlns="http://www.w3.org/2000/svg" p-id="2477" xmlns:xlink="http://www.w3.org/1999/xlink" width="132" height="128"><defs><style type="text/css"></style></defs><path d="M360.544 511.328V849.6a52.8 52.8 0 0 1-105.6 0V511.264a382.688 382.688 0 0 1-47.2-10.112 80 80 0 0 1-58.4-77.024V384c0-1.312 0-2.624 0.096-3.936a32.448 32.448 0 0 1-0.096-2.464V160a32 32 0 0 1 32-32h6.4a32 32 0 0 1 32 32v223.2a26.4 26.4 0 1 0 52.8 0V160a32 32 0 0 1 32-32h6.4a32 32 0 0 1 32 32v223.2a26.4 26.4 0 1 0 52.8 0V160a32 32 0 0 1 32-32h6.4a32 32 0 0 1 32 32v217.6c0 0.832-0.032 1.664-0.096 2.464l0.096 3.936v40.192a80 80 0 0 1-58.4 77.024c-15.712 4.416-31.456 7.776-47.2 10.112z m451.2 27.04v311.232a52.8 52.8 0 0 1-105.6 0v-311.232c-61.536-28.992-105.6-107.2-105.6-199.168 0-116.64 70.912-211.2 158.4-211.2 87.456 0 158.4 94.56 158.4 211.2 0 91.968-44.096 170.176-105.6 199.168z" p-id="2478"></path></svg>