<?xml version="1.0" standalone="no"?><!DOCTYPE svg PUBLIC "-//W3C//DTD SVG 1.1//EN" "http://www.w3.org/Graphics/SVG/1.1/DTD/svg11.dtd"><svg t="1591276391434" class="icon" viewBox="0 0 1024 1024" version="1.1" xmlns="http://www.w3.org/2000/svg" p-id="9262" xmlns:xlink="http://www.w3.org/1999/xlink" width="128" height="128"><defs><style type="text/css"></style></defs><path d="M424.8 736.8C193.6 736.8 4.8 549.6 4.8 319.2c0-8.8 7.2-16 16-16s16 7.2 16 16c0 212.8 173.6 385.6 388 385.6 213.6 0 388-172.8 388-385.6 0-8.8 7.2-16 16-16s16 7.2 16 16c0 230.4-188 417.6-420 417.6z" p-id="9263"></path><path d="M424.8 664.8c-4.8 0-8-3.2-8-8s3.2-8 8-8c128.8 0 247.2-75.2 301.6-191.2 1.6-4 6.4-5.6 10.4-4 4 1.6 5.6 6.4 4 10.4C684 586.4 560 664.8 424.8 664.8zM420 446.4c-92 0-211.2-4.8-318.4-42.4-27.2-9.6-64.8-22.4-84.8-50.4-34.4-48 8-108.8 32.8-144.8l0.8-1.6c4.8-7.2 10.4-16 20-21.6 5.6-3.2 11.2-4.8 16-6.4 2.4-0.8 5.6-1.6 7.2-2.4 6.4-3.2 12-9.6 17.6-16 19.2-23.2 35.2-48 49.6-74.4 3.2-6.4 7.2-14.4 14.4-20 7.2-6.4 15.2-8.8 21.6-10.4l70.4-24c8-2.4 17.6-3.2 26.4 0 7.2-6.4 16.8-11.2 27.2-14.4 12.8-3.2 25.6-2.4 36.8 2.4 17.6-16 44.8-20.8 67.2-11.2l4.8 2.4c2.4 1.6 5.6 2.4 6.4 2.4 1.6 0 4.8-0.8 7.2-2.4l7.2-2.4c14.4-4 31.2-1.6 44.8 8 7.2 4.8 13.6 11.2 17.6 18.4 33.6-11.2 74.4-2.4 100 22.4 12-5.6 29.6-10.4 45.6-6.4 9.6 2.4 17.6 8.8 23.2 17.6 4.8 8 5.6 16.8 6.4 24 0.8 4.8 0.8 8.8 2.4 11.2 2.4 4 9.6 6.4 16.8 8.8 12 4 26.4 9.6 34.4 24 4.8 8.8 4.8 18.4 5.6 26.4 0 4 0 8 0.8 10.4 1.6 5.6 7.2 12 12.8 16.8l60 61.6c8 8.8 18.4 19.2 23.2 33.6 9.6 28.8-19.2 67.2-34.4 80.8-24.8 22.4-60.8 33.6-87.2 41.6-107.2 34.4-224 38.4-302.4 38.4zM280 61.6c-0.8 0-2.4 0-3.2 0.8l-69.6 22.4c-4 1.6-8.8 2.4-11.2 4.8-2.4 1.6-4 5.6-6.4 9.6-15.2 28.8-32.8 56-53.6 80.8-7.2 8.8-16 18.4-28.8 24.8-4 1.6-8 3.2-11.2 4-3.2 0.8-6.4 2.4-8.8 3.2-4 2.4-7.2 7.2-10.4 12.8l-1.6 1.6c-20 29.6-53.6 78.4-32 108.8 13.6 19.2 45.6 30.4 68.8 39.2 102.4 36 218.4 40.8 308 40.8 76 0 189.6-4 293.6-36 23.2-7.2 55.2-16.8 75.2-35.2 15.2-13.6 28-38.4 25.6-47.2-2.4-7.2-9.6-14.4-16-21.6l-60-61.6c-7.2-7.2-16.8-17.6-20-31.2-1.6-6.4-1.6-12.8-1.6-18.4 0-4.8 0-9.6-1.6-12-2.4-4-9.6-6.4-16.8-8.8-12-4-26.4-9.6-34.4-24-4.8-8-5.6-16.8-6.4-23.2-0.8-4.8-0.8-8.8-2.4-11.2-0.8-1.6-1.6-2.4-3.2-2.4-7.2-1.6-20.8 2.4-32.8 9.6-7.2 4-16 2.4-20.8-4-18.4-24.8-57.6-32.8-84-16.8-4.8 3.2-10.4 3.2-15.2 0.8-4.8-2.4-8-7.2-8.8-12.8-0.8-5.6-4.8-12-10.4-16-5.6-4-12.8-5.6-18.4-3.2-1.6 0.8-3.2 0.8-4.8 1.6-5.6 2.4-12.8 4.8-20.8 4-8-0.8-13.6-3.2-18.4-5.6-1.6-0.8-2.4-1.6-4-1.6-12.8-5.6-30.4-0.8-38.4 11.2-2.4 4-6.4 6.4-10.4 6.4-4 0.8-8.8-0.8-12-3.2-8-4.8-16-5.6-24.8-4-8.8 2.4-16 7.2-18.4 14.4-3.2 7.2-12 11.2-20 8-4.8-1.6-8-4.8-9.6-9.6zM525.6 1020h-4c-22.4-0.8-41.6-8.8-54.4-23.2-38.4-40.8-17.6-120.8 47.2-182.4 40-37.6 88.8-60 129.6-58.4 22.4 0.8 41.6 8.8 54.4 23.2 38.4 40.8 17.6 120.8-47.2 182.4-38.4 36.8-84.8 58.4-125.6 58.4z m115.2-231.2c-32 0-71.2 19.2-104 49.6-50.4 47.2-71.2 109.6-45.6 136.8 7.2 8 18.4 12 32 12.8 32 0.8 72.8-17.6 106.4-49.6 50.4-47.2 71.2-109.6 45.6-136.8-7.2-8-18.4-12-32-12.8h-2.4z" p-id="9264"></path><path d="M701.6 839.2c-1.6 0-4 0-5.6-0.8-5.6-2.4-9.6-7.2-10.4-12.8-0.8-9.6-4.8-17.6-10.4-23.2-5.6-5.6-12.8-9.6-22.4-12-5.6-0.8-10.4-5.6-12-11.2-1.6-5.6 0-12 4-16l264.8-269.6c12.8-12.8 28.8-19.2 47.2-19.2 17.6 0 34.4 7.2 46.4 20.8 12 12.8 18.4 29.6 17.6 48-0.8 17.6-8.8 33.6-22.4 45.6l-285.6 247.2c-3.2 1.6-7.2 3.2-11.2 3.2zM684.8 768c5.6 3.2 10.4 7.2 14.4 12s8 9.6 10.4 15.2L976 564c6.4-5.6 10.4-14.4 11.2-23.2 0.8-8.8-2.4-17.6-8.8-24-6.4-6.4-14.4-10.4-23.2-10.4-8.8 0-17.6 3.2-24 9.6L684.8 768zM199.2 284c-0.8 0-2.4 0-3.2-0.8-4-1.6-5.6-6.4-4-10.4 6.4-14.4 10.4-29.6 12-44.8 0-4 4-8 8.8-7.2 4.8 0 8 4 7.2 8.8-1.6 17.6-5.6 34.4-13.6 50.4-1.6 2.4-4 4-7.2 4zM372.8 314.4c-4.8 0-8-3.2-8-8V264c0-4.8 3.2-8 8-8s8 3.2 8 8v41.6c0 4.8-4 8.8-8 8.8zM450.4 194.4c-4 0-7.2-2.4-8-6.4-4.8-20-11.2-39.2-20-57.6-1.6-4 0-8.8 4-10.4 4-1.6 8.8 0 10.4 4 9.6 19.2 16.8 40 21.6 61.6 0.8 4-1.6 8.8-6.4 9.6-0.8-0.8-0.8-0.8-1.6-0.8zM576 275.2c-4 0-7.2-3.2-8-7.2l-6.4-71.2c0-4.8 3.2-8 7.2-8.8 4.8 0 8 3.2 8.8 7.2l6.4 71.2c0.8 4.8-2.4 8-8 8.8 0.8 0 0 0 0 0zM692.8 296c-4 0-8-3.2-8-7.2-2.4-29.6-9.6-59.2-21.6-86.4-1.6-4 0-8.8 4-10.4 4-1.6 8.8 0 10.4 4 12.8 28.8 20.8 60 22.4 92 0.8 4-2.4 8-7.2 8zM307.2 159.2c-1.6 0-2.4 0-3.2-0.8-4-1.6-5.6-6.4-3.2-10.4 7.2-14.4 16.8-27.2 28.8-37.6 3.2-3.2 8-2.4 11.2 0.8 3.2 3.2 2.4 8-0.8 11.2-10.4 9.6-19.2 20.8-25.6 32.8-1.6 2.4-4.8 4-7.2 4zM509.6 328.8h-1.6c-4-0.8-7.2-5.6-5.6-9.6l3.2-12c0.8-4 5.6-7.2 9.6-5.6 4 0.8 7.2 5.6 5.6 9.6l-3.2 12c-0.8 3.2-4 5.6-8 5.6z" p-id="9265"></path></svg>